<svg width="237" height="49" xmlns="http://www.w3.org/2000/svg"><g fill="#FF289C" fill-rule="evenodd"><path d="M37.739.802c-.679 1.797-1.405 3.74-2.179 5.826-.773 2.087-1.554 4.21-2.341 6.37l-2.321 6.37c-1.288 3.535-2.57 7.072-3.848 10.61-.502 1.392-.876 2.45-1.12 3.175l-6.352-17.524a7.57 7.57 0 0 1-.183-.435 2.696 2.696 0 0 1-.143-.478 1.412 1.412 0 0 0-.082.261 4.19 4.19 0 0 1-.081.304l-.081.348c-.795 2.206-1.596 4.41-2.403 6.61a131.1 131.1 0 0 1-1.038 2.848 415.105 415.105 0 0 0-2.097 5.674c-.294.808-.58 1.62-.855 2.435A1015.439 1015.439 0 0 1 6.71 16.977 918.353 918.353 0 0 0 .806.802h3.135l1.67 4.587c.597 1.638 1.195 3.283 1.792 4.935a633.535 633.535 0 0 1 1.73 4.848c.557 1.58 1.066 3.03 1.527 4.349.399 1.133.786 2.271 1.16 3.413.313.957.523 1.638.632 2.044l.326 1.304c0-.086.054-.297.162-.63a47.993 47.993 0 0 1 .468-1.413c.15-.435.333-.978.55-1.631.246-.734.497-1.466.754-2.196.285-.811.577-1.638.875-2.478.706-1.971 1.48-4.175 2.321-6.61-.597-1.797-1.14-3.435-1.629-4.913a361.66 361.66 0 0 1-.63-1.87 88.739 88.739 0 0 1-.55-1.696 63.11 63.11 0 0 0-.428-1.326 10.217 10.217 0 0 1-.224-.717h2.687a705.701 705.701 0 0 1 3.543 9.957c.472 1.364.947 2.726 1.425 4.088.489 1.391.95 2.717 1.385 3.978.434 1.261.835 2.428 1.201 3.5.303.88.595 1.765.875 2.653.055.232.11.45.163.652.055.203.109.42.163.652l.326-1.304c.081-.435.285-1.138.61-2.11.326-.97.72-2.115 1.182-3.434.461-1.32.977-2.776 1.547-4.37a850.64 850.64 0 0 1 1.75-4.849 515.13 515.13 0 0 1 1.813-4.891c.61-1.623 1.174-3.131 1.69-4.522h2.932zm68.02 0c-.679 1.797-1.405 3.74-2.179 5.826a1252.01 1252.01 0 0 0-2.341 6.37l-2.321 6.37c-1.288 3.535-2.57 7.072-3.848 10.61-.503 1.392-.876 2.45-1.12 3.175l-6.352-17.524a7.324 7.324 0 0 1-.184-.435 2.696 2.696 0 0 1-.142-.478 1.412 1.412 0 0 0-.082.261 4.19 4.19 0 0 1-.081.304l-.082.348c-.794 2.206-1.595 4.41-2.402 6.61a131.1 131.1 0 0 1-1.038 2.848 426.281 426.281 0 0 0-2.097 5.674c-.294.808-.58 1.62-.856 2.435a1015.437 1015.437 0 0 1-5.904-16.219A918.354 918.354 0 0 0 68.826.802h3.135l1.67 4.587c.597 1.638 1.194 3.283 1.791 4.935a633.536 633.536 0 0 1 1.731 4.848c.51 1.45 1.02 2.899 1.527 4.349a174.11 174.11 0 0 1 1.16 3.413c.313.957.523 1.638.632 2.044l.325 1.304c0-.086.055-.297.163-.63a47.993 47.993 0 0 1 .468-1.413c.15-.435.333-.978.55-1.631.218-.652.469-1.384.754-2.196.285-.811.577-1.638.875-2.478.786-2.199 1.56-4.402 2.321-6.61-.597-1.797-1.14-3.435-1.629-4.913-.212-.623-.422-1.246-.63-1.87a88.737 88.737 0 0 1-.55-1.696 63.11 63.11 0 0 0-.428-1.326 10.217 10.217 0 0 1-.224-.717h2.687a705.703 705.703 0 0 1 3.543 9.957c.472 1.364.947 2.726 1.425 4.088.489 1.391.95 2.717 1.385 3.978.434 1.261.835 2.428 1.201 3.5.303.88.595 1.765.875 2.653.055.232.109.45.163.652.055.203.109.42.163.652l.326-1.304c.081-.435.285-1.138.61-2.11.326-.97.72-2.115 1.181-3.434a850.648 850.648 0 0 1 3.298-9.219 515.142 515.142 0 0 1 1.813-4.891c.61-1.623 1.174-3.131 1.69-4.522h2.931zm33.945 28.872c-.868.58-2.022 1.13-3.46 1.652-1.44.522-3.11.783-5.01.783-2.252 0-4.282-.42-6.087-1.26-1.805-.841-3.339-1.98-4.601-3.414-1.262-1.435-2.24-3.095-2.932-4.979-.692-1.884-1.038-3.884-1.038-6 0-2.29.393-4.421 1.18-6.393.788-1.97 1.86-3.674 3.218-5.109a14.78 14.78 0 0 1 4.764-3.37c1.818-.812 3.76-1.217 5.823-1.217.733 0 1.472.05 2.219.152a14.476 14.476 0 0 1 4.011 1.152c.57.261 1.058.551 1.466.87-.136.232-.245.42-.326.565a13.17 13.17 0 0 0-.244.457c-.082.16-.177.34-.285.543-.11.203-.245.464-.408.783-.869-.58-1.88-1.014-3.033-1.305a13.606 13.606 0 0 0-3.319-.434c-1.71 0-3.312.348-4.805 1.043a12.183 12.183 0 0 0-3.889 2.848 13.772 13.772 0 0 0-2.606 4.175 13.285 13.285 0 0 0-.956 5.022c0 1.681.285 3.297.855 4.848a12.447 12.447 0 0 0 2.443 4.087A12.204 12.204 0 0 0 126.47 28c1.466.71 3.094 1.065 4.886 1.065a13.302 13.302 0 0 0 4.316-.717 15.217 15.217 0 0 0 1.65-.674c.474-.232.848-.464 1.12-.696l1.262 2.696zm5.271 2.087V.715h2.77v28.22h15.473v2.826h-18.243zm31.682.348c-1.466 0-2.83-.253-4.093-.761a9.632 9.632 0 0 1-3.277-2.152c-.923-.928-1.65-2.065-2.179-3.414-.53-1.348-.794-2.877-.794-4.587V.715h2.77v20.35c0 1.246.189 2.377.57 3.391.38 1.015.908 1.877 1.587 2.587a7.132 7.132 0 0 0 2.403 1.653c.922.391 1.927.587 3.013.587 1.059 0 2.05-.196 2.972-.587a7.15 7.15 0 0 0 2.403-1.652c.678-.71 1.214-1.573 1.608-2.588.394-1.014.59-2.145.59-3.391V.715H187v20.48c0 1.71-.265 3.24-.795 4.588-.529 1.348-1.262 2.485-2.198 3.413a9.857 9.857 0 0 1-3.299 2.152 10.76 10.76 0 0 1-4.051.761zM196.35 3.411v11.436h4.886c1.765 0 3.095-.559 3.99-1.675.897-1.116 1.345-2.529 1.345-4.24 0-1.941-.544-3.347-1.63-4.217-1.085-.87-2.497-1.304-4.234-1.304h-4.357zm0 14.001v11.653h4.968c.922 0 1.791-.123 2.606-.37a6.465 6.465 0 0 0 2.137-1.086 5.082 5.082 0 0 0 1.446-1.805c.353-.725.53-1.565.53-2.522 0-1.043-.204-1.942-.611-2.696a5.049 5.049 0 0 0-1.65-1.826 7.376 7.376 0 0 0-2.361-1.022 11.275 11.275 0 0 0-2.708-.326h-4.357zm-2.77 14.35V.714h6.8c1.358 0 2.586.144 3.686.434 1.1.29 2.043.754 2.83 1.392.787.638 1.391 1.464 1.812 2.478.42 1.015.631 2.247.631 3.696 0 .841-.081 1.645-.244 2.414a7.89 7.89 0 0 1-.774 2.13 5.794 5.794 0 0 1-1.384 1.696c-.57.479-1.276.848-2.118 1.109a9.183 9.183 0 0 1 2.22.826c.719.377 1.356.87 1.913 1.479.557.608 1.005 1.34 1.344 2.196.339.855.509 1.848.509 2.978 0 1.392-.258 2.609-.774 3.653-.516 1.043-1.201 1.898-2.056 2.565a8.909 8.909 0 0 1-2.952 1.5 11.997 11.997 0 0 1-3.461.5h-7.981zM64.638 5.04l.6 1.197.513 1.245.386 1.285.288 1.364.149 1.37.046 1.407-.089 1.44-.093.75-.155.712-.15.714-.207.679-.225.685-.255.667-.311.635-.309.632-.344.592-.369.578-.4.56-.402.531-.453.527-.46.5-.47.457-.52.443-.522.42-.53.399-.565.356-.57.333-.578.311-.607.267-.616.25-.648.203-.63.178-.66.16-.648.105-.68.069-.667.036-.693.022-.683-.036-.692-.075-.37-.072-.46-.092-.502-.136-.582-.186-.64-.242-.657-.311-.694-.354-.688-.43-.703-.499-.7-.573-.672-.656-.624-.747-.6-.824-.535-.944-.485-1.032-.397-1.13-.277-1.14-.188-1.145-.078-1.07-.004-1.066.096-1.02.152-.99.231-.958.293-.903.327-.838.386-.803.394-.757.435-.693.452-.623.467-.554.463-.502.452-.424.25-.222.252-.192.258-.196.254-.197.26-.174.28-.175.261-.17.267-.152.285-.155.272-.126.296-.13.272-.129.3-.108.27-.123.306-.089.275-.1.873-.245.871-.144.884-.099.901-.028.891.023.866.13.884.175.87.23.843.308.82.394.8.42.783.528.742.562.711.622.662.706.63.77.24.307.221.335.195.318.199.34.197.32.18.346.17.326.157.353-.193-.592-.234-.58-.259-.575-.274-.544-.3-.563-.319-.528-.342-.554-.383-.513-.627-.768-.644-.715-.693-.65-.726-.592-.763-.532-.792-.476-.8-.42-.812-.37-.838-.286-.855-.262L53.92.16l-.864-.105-.87-.055H51.3l-.869.068-.871.148-.4.083-.374.08-.387.137-.392.108-.385.133-.36.15-.38.154-.374.18-.348.197-.369.205-.37.204-.34.219-.36.247-.335.245-.351.273-.325.288-.288.254-.333.343-.367.401-.376.454-.407.535-.417.565-.427.642-.418.664-.406.708-.369.777-.371.773-.307.83-.278.85-.224.885-.177.893-.1.923-.039 1.55.105 1.563.23 1.5.37 1.51.491 1.433.599 1.395.718 1.314.822 1.262.914 1.16 1.008 1.087 1.1.957 1.184.84 1.247.716 1.333.597 1.386.434 1.438.267.334.03.353.026.357.024.324.009.354.002h.348l.343-.023.317-.038.344-.02.339-.046.33-.07.338-.046.334-.064.326-.093.327-.091.328-.09.106.912.11.914.164 1.047.273 1.314-.149.043-.138.013-.151.043-.155.042-.143.067-.135.035-.15.044-.148.066-.387.034-.408.04-.39.034-.378.057-.384.057-.383.057-.36.051-.38.055-.354.076-.387.036-.359.05-.365.028-.37.004h-.352l-.368.003-.363-.045-.059.612.089.546.186.568.287.518.32.53.358.52.34.526.338.526.408-.14.406-.138.387-.132.394-.11.362-.13.366-.124.363-.126.366-.127.37-.104.343-.12.34-.124.326-.112.348-.099.318-.115.322-.113.32-.116.049.485.076.502.1.492.142.481.019.84.064.828.085.822.103.793.053.803.028.761.007.794-.088.77.147.035.125.039.143.011.137-.016.14.01.139-.013.134-.01.133-.04.386-.134.397-.184.369-.204.378-.254.37-.281.36-.246.375-.278.385-.236-.529-2.16-.502-1.945-.466-1.811-.469-1.707.464-.204.44-.196.438-.202.465-.2.432-.224.458-.227.447-.247.453-.254.474-.257.47-.254.465-.28.484-.313.484-.282.504-.34.518-.345.522-.345-.158-.55-.686.242-.583.186-.544.151-.475.136-.423.091-.4.09-.4.062-.357.076-.357.05-.399.086-.405.064-.413.115-.483.111-.544.152-.586.187-.682.243-.114.008-.11.03-.109.03-.115.008-.18-.546-.196-.519-.202-.54-.226-.534-.222-.53-.25-.53-.248-.55-.257-.573.961-.444.918-.532.881-.569.868-.64.8-.722.767-.76.737-.803.67-.86.612-.915.58-.958.504-.986.444-1.02.394-1.055.32-1.084.237-1.11.161-1.139.12-1.8-.086-1.764-.26-1.717-.453-1.66-.597-1.572-.741-1.508-.9-1.389-1.041-1.297.715 1.117z"/><text transform="translate(74 31)" font-family="ArialUnicodeMS, Arial Unicode MS" font-size="16"><tspan x="0" y="17">Women on Wanderlust</tspan></text></g></svg>